<?xml version="1.0" standalone="no"?>
<!DOCTYPE svg PUBLIC "-//W3C//DTD SVG 20010904//EN"
 "http://www.w3.org/TR/2001/REC-SVG-20010904/DTD/svg10.dtd">
<svg version="1.0" xmlns="http://www.w3.org/2000/svg"
 width="700.000000pt" height="700.000000pt" viewBox="0 0 700.000000 700.000000"
 preserveAspectRatio="xMidYMid meet">
<metadata>
Created by potrace 1.11, written by Peter Selinger 2001-2013
</metadata>
<g transform="translate(0.000000,700.000000) scale(0.100000,-0.100000)"
fill="#000000" stroke="none">
<path d="M5500 6993 c-380 -36 -726 -137 -1039 -303 -163 -86 -372 -228 -496
-337 -22 -20 -206 -201 -410 -403 l-370 -367 -235 -28 c-129 -15 -242 -29
-250 -30 -8 -1 -40 -6 -70 -9 -109 -14 -135 -17 -160 -21 -14 -2 -50 -7 -80
-10 -70 -7 -128 -14 -160 -20 -14 -2 -52 -7 -85 -11 -33 -3 -73 -8 -90 -10
-16 -2 -52 -6 -80 -10 -27 -3 -61 -7 -75 -10 -14 -2 -89 -11 -166 -20 l-142
-17 -588 -588 c-324 -324 -586 -590 -584 -593 3 -2 227 -93 498 -201 l493
-197 -111 -111 -111 -111 160 -160 161 -161 -250 -350 -250 -350 777 -777
c429 -429 782 -774 787 -770 6 3 164 115 351 249 l340 243 160 -160 161 -161
111 111 110 111 80 -198 c44 -109 133 -332 199 -496 65 -163 121 -297 124
-297 3 0 269 264 592 588 l587 587 6 65 c4 36 8 72 10 80 2 8 6 44 10 80 4 36
8 72 10 80 1 8 6 42 9 75 4 33 9 71 11 85 2 14 6 48 10 75 3 28 10 86 16 130
10 83 15 123 23 190 12 98 19 151 21 165 2 8 6 44 10 80 4 36 8 72 10 80 1 8
6 44 10 80 4 36 8 72 10 80 1 8 6 47 11 85 4 39 8 73 10 78 1 4 2 23 3 43 1
35 24 60 354 391 407 410 383 384 467 488 210 257 366 545 469 866 30 94 71
246 76 284 2 18 5 36 20 120 3 17 8 53 11 80 4 28 9 79 14 115 8 67 5 460 -3
495 -3 11 -8 49 -12 85 -4 36 -9 74 -11 85 -6 25 -22 111 -28 146 -13 80 -137
465 -154 480 -12 11 -190 75 -287 103 -49 14 -103 30 -120 36 -16 5 -43 11
-60 14 -52 10 -139 26 -165 31 -14 3 -49 8 -79 11 -30 3 -64 8 -75 11 -25 5
-445 10 -496 6z"/>
<path d="M372 2000 c-199 -198 -362 -363 -362 -366 0 -8 279 -284 287 -284 5
0 170 162 368 360 l359 361 -145 145 -146 146 -361 -362z"/>
<path d="M908 1201 c-197 -197 -358 -361 -358 -365 0 -8 277 -286 285 -286 4
0 169 162 367 361 l361 360 -144 145 c-79 79 -146 144 -149 144 -3 -1 -166
-162 -362 -359z"/>
<path d="M1708 662 c-197 -198 -358 -362 -358 -366 0 -7 277 -286 284 -286 2
0 167 163 366 362 l362 361 -144 144 c-78 78 -145 143 -148 143 -3 0 -166
-161 -362 -358z"/>
</g>
</svg>
