<svg width="309px" height="309px" viewBox="0 0 309 309" version="1.1" xmlns="http://www.w3.org/2000/svg" xmlns:xlink="http://www.w3.org/1999/xlink">
    <!-- Generator: Sketch 47.1 (45422) - http://www.bohemiancoding.com/sketch -->
    <desc>
        Created with Sketch.
    </desc>
    <defs>
    </defs>
    <g id="Page-1" stroke="none" stroke-width="1" fill="none" fill-rule="evenodd">
        <g id="launchpage" transform="translate(-1090.000000, -4692.000000)">
            <g id="Section-6" transform="translate(0.000000, 4316.000000)">
                <g id="iOS/Tab-bar/Icons/Icon-1/Active" transform="translate(1033.000000, 301.000000)">
                    <g id="rocket-2" transform="translate(57.000000, 75.000000)">
                        <path d="M300.960256,13.4287073 L299.467814,9.54783394 L295.586093,8.05547818 C281.686985,2.71031263 267.096228,0 252.2217,0 C220.594776,0 190.950498,12.2257176 168.749096,34.4258347 L140.728855,62.4438318 L70.1680887,71.2632614 L18.1764706,123.251872 L62.2767934,140.891355 L52.4639711,150.704233 L66.7054734,164.944912 L44.6556238,195.812915 L113.193828,264.347155 L144.063618,242.297957 L158.30512,256.538636 L168.117942,246.725758 L185.757822,290.823529 L237.74944,238.834919 L246.568756,168.279482 L274.588998,140.260237 C307.560555,107.289964 317.912228,57.5052755 300.960256,13.4287073 Z" id="Shape" fill="#397BD5" fill-rule="nonzero">
                        </path>
                        <polygon id="Shape" fill="#4493FF" fill-rule="nonzero" points="66.7054734 164.944912 44.6556238 195.812915 113.193828 264.347155 144.063618 242.297957">
                        </polygon>
                        <polygon id="Path" fill="#4493FF" points="115.215142 239.910687 69.0928818 193.790471 80.1174948 178.356781 130.650349 228.886088">
                        </polygon>
                        <path d="M261.359712,127.030469 L158.304496,230.079723 L125.228786,197.005927 L197.994226,124.245321 L184.764316,111.016176 L111.998877,183.777406 L78.9237906,150.704233 L181.979006,47.6549791 C200.64607,28.988995 225.592243,18.7090149 252.2217,18.7090149 C263.391005,18.7090149 274.371961,20.517553 284.923832,24.0909749 C297.16273,60.2661024 288.131366,100.260364 261.359712,127.030469 Z" id="Path" fill="#397BD5">
                        </path>
                        <rect id="Rectangle-path" fill="#4493FF" fill-rule="nonzero" transform="translate(46.492235, 262.492235) rotate(-45.000000) translate(-46.492235, -262.492235) " x="23.7716466" y="253.404" width="45.4411765" height="18.1764706">
                        </rect>
                        <rect id="Rectangle-path" fill="#4493FF" fill-rule="nonzero" transform="translate(81.794118, 286.279412) rotate(-135.000000) translate(-81.794118, -286.279412) " x="72.7058824" y="263.558824" width="18.1764706" height="45.4411765">
                        </rect>
                        <rect id="Rectangle-path" fill="#4493FF" fill-rule="nonzero" transform="translate(22.720588, 227.205882) rotate(-45.000000) translate(-22.720588, -227.205882) " x="0" y="218.117647" width="45.4411765" height="18.1764706">
                        </rect>
                        <polygon id="Path-2" fill="#4493FF" points="185 111.5 198 124.5 111 211 98 198">
                        </polygon>
                        <path d="M236.294421,45.4411765 C229.007708,45.4411765 222.158041,48.2773118 217.006243,53.4267059 C206.370468,64.0569118 206.370468,81.3542471 217.006243,91.9844529 C222.158041,97.1344529 229.008315,99.9705882 236.294421,99.9705882 C243.580527,99.9705882 250.430194,97.1344529 255.581992,91.9844529 C266.217767,81.3542471 266.217767,64.0569118 255.581992,53.4267059 C250.430194,48.2767059 243.580527,45.4411765 236.294421,45.4411765 Z" id="Shape" fill="#4493FF" fill-rule="nonzero">
                        </path>
                    </g>
                </g>
            </g>
        </g>
    </g>
</svg>
