<svg xmlns="http://www.w3.org/2000/svg" viewBox="0 0 416.07 498.36"><defs><style>.a{fill:#397bd5;}.b{fill:#4493ff;}.c{fill:none;stroke:#eff6ff;stroke-width:14px;}.d{fill:#eff6ff;}</style></defs><title>Asset 111</title><path class="a" d="M248.81,24.51l-5.68-2.22L237.7,25a175.25,175.25,0,0,0-51.4,38.92,170.93,170.93,0,0,0-44.73,124.22l2.85,58-59.82,85,5.29,107.54,62.52-30.25,1,20.3,29.46-1.33,11.82,54.32,141.8-6.39,6.43-55.15,29.46-1.33-1-20.29,29.68,9.8-6.4-129.9-31.27-42.17-2.85-58C357.18,110.08,313.33,49.72,248.81,24.51Z"/><polygon class="b" points="182.94 426.46 194.74 480.7 336.33 474.32 342.75 419.26 182.94 426.46"/><polygon class="b" points="313.04 448.65 217.21 452.97 211.27 425.7 316.27 420.96 313.04 448.65"/><path class="a" d="M332.08,181l10.46,212.51-68.22,3.07-7.38-150-27.29,1.23,7.39,150-68.22,3.08L168.36,188.33A143.36,143.36,0,0,1,205.91,84.15,147.43,147.43,0,0,1,243.8,54.21C294.94,76.64,329.36,125.74,332.08,181Z"/><polygon class="b" points="242.5 247.09 269.38 245.83 277.36 425.21 250.48 426.48 242.5 247.09"/><path class="b" d="M219.35,126.33a39.19,39.19,0,0,0-10.2,28.45,39.77,39.77,0,0,0,41.44,37.7,39.36,39.36,0,0,0,37.56-41.28,39.77,39.77,0,0,0-41.44-37.7A39.13,39.13,0,0,0,219.35,126.33Z"/><path class="c" d="M333.84,8.75l21.78,462,53.12-2.5-11-233L354.33,7.39Z"/><rect class="d" x="245.21" y="48.73" width="87.42" height="15.28" rx="3" ry="3" transform="translate(-2.33 13.67) rotate(-2.7)"/><rect class="d" x="262.33" y="411.8" width="87.42" height="15.28" rx="3" ry="3" transform="translate(-19.42 14.88) rotate(-2.7)"/><rect class="d" x="349.68" y="408.57" width="59.48" height="15.28" transform="translate(-19.18 18.34) rotate(-2.7)"/><rect class="d" x="347.23" y="356.51" width="59.48" height="15.28" transform="translate(-16.74 18.16) rotate(-2.7)"/><rect class="d" x="344.8" y="305.03" width="59.48" height="15.28" transform="translate(-14.31 17.99) rotate(-2.7)"/><rect class="d" x="342.34" y="252.97" width="59.48" height="15.28" transform="translate(-11.86 17.82) rotate(-2.7)"/><polygon class="d" points="339.56 202.31 396.27 199.63 399.7 214.78 340.28 217.58 339.56 202.31"/><polygon class="d" points="337.11 150.25 382.56 148.09 385.46 163.27 337.83 165.52 337.11 150.25"/><polygon class="d" points="334.65 98.19 375.78 96.24 378.47 111.42 335.37 113.46 334.65 98.19"/><polygon class="d" points="332.2 46.13 366.83 44.48 369.21 59.68 332.92 61.4 332.2 46.13"/><ellipse class="d" cx="133.31" cy="433.66" rx="40.5" ry="52.5" transform="translate(-20.28 6.76) rotate(-2.7)"/><path class="d" d="M61.9,458.55c63.41-3,57.64-30.28,56-64.21s-29.28-60.19-61.83-58.65S-1.53,366,.07,399.9,29.36,460.09,61.9,458.55Z"/><ellipse class="d" cx="193.26" cy="452.36" rx="43.5" ry="39" transform="translate(-21.09 9.61) rotate(-2.7)"/><ellipse class="d" cx="235.94" cy="465.86" rx="29.5" ry="32.5" transform="translate(-21.68 11.63) rotate(-2.7)"/></svg>