<svg width="33px" height="56px" viewBox="0 0 33 56" version="1.1" xmlns="http://www.w3.org/2000/svg" xmlns:xlink="http://www.w3.org/1999/xlink">
    <!-- Generator: Sketch 47.1 (45422) - http://www.bohemiancoding.com/sketch -->
    <desc>
        Created with Sketch.
    </desc>
    <defs>
    </defs>
    <g id="Page-1" stroke="none" stroke-width="1" fill="none" fill-rule="evenodd">
        <g id="launchpage" transform="translate(-1502.000000, -3845.000000)" fill-rule="nonzero" fill="#397BD5">
            <path d="M1534.104,3870.81488 L1509.10718,3845.89463 C1508.52903,3845.31779 1507.75726,3845 1506.93433,3845 C1506.11141,3845 1505.33964,3845.31779 1504.76149,3845.89463 L1502.92065,3847.72941 C1501.7228,3848.92498 1501.7228,3850.86811 1502.92065,3852.06186 L1523.9111,3872.98839 L1502.89736,3893.93814 C1502.31921,3894.51498 1502,3895.28395 1502,3896.10391 C1502,3896.92478 1502.31921,3897.69375 1502.89736,3898.27105 L1504.7382,3900.10537 C1505.3168,3900.68221 1506.08812,3901 1506.91104,3901 C1507.73397,3901 1508.50574,3900.68221 1509.08389,3900.10537 L1534.104,3875.16236 C1534.68352,3874.58369 1535.00182,3873.81108 1534.99999,3872.98976 C1535.00182,3872.16524 1534.68352,3871.39309 1534.104,3870.81488 Z" id="Shape">
            </path>
        </g>
    </g>
</svg>