<svg width="33px" height="56px" viewBox="0 0 33 56" version="1.1" xmlns="http://www.w3.org/2000/svg" xmlns:xlink="http://www.w3.org/1999/xlink">
    <!-- Generator: Sketch 47.1 (45422) - http://www.bohemiancoding.com/sketch -->
    <desc>
        Created with Sketch.
    </desc>
    <defs>
    </defs>
    <g id="Page-1" stroke="none" stroke-width="1" fill="none" fill-rule="evenodd">
        <g id="launchpage" transform="translate(-958.000000, -3845.000000)" fill-rule="nonzero" fill="#397BD5">
            <path d="M990.104003,3870.81488 L965.107178,3845.89463 C964.529032,3845.31779 963.757257,3845 962.934335,3845 C962.111413,3845 961.339638,3845.31779 960.761492,3845.89463 L958.92065,3847.72941 C957.7228,3848.92498 957.7228,3850.86811 958.92065,3852.06186 L979.911096,3872.98839 L958.897359,3893.93814 C958.319213,3894.51498 958,3895.28395 958,3896.10391 C958,3896.92478 958.319213,3897.69375 958.897359,3898.27105 L960.738202,3900.10537 C961.316805,3900.68221 962.088123,3901 962.911045,3901 C963.733967,3901 964.505741,3900.68221 965.083888,3900.10537 L990.104003,3875.16236 C990.683519,3874.58369 991.001819,3873.81108 990.999992,3872.98976 C991.001819,3872.16524 990.683519,3871.39309 990.104003,3870.81488 Z" id="Shape" transform="translate(974.500000, 3873.000000) rotate(-180.000000) translate(-974.500000, -3873.000000) ">
            </path>
        </g>
    </g>
</svg>