
<svg width="48px" height="37px" viewBox="0 0 48 37" version="1.1" xmlns="http://www.w3.org/2000/svg" xmlns:xlink="http://www.w3.org/1999/xlink">
    <!-- Generator: Sketch 47.1 (45422) - http://www.bohemiancoding.com/sketch -->
    <desc>Created with Sketch.</desc>
    <defs></defs>
    <g id="Page-1" stroke="none" stroke-width="1" fill="none" fill-rule="evenodd">
        <g id="launchpage" transform="translate(-694.000000, -7332.000000)" fill-rule="nonzero" fill="#FFFFFF">
            <g id="Footer" transform="translate(0.000000, 6976.000000)">
                <g id="black-back-closed-envelope-shape" transform="translate(694.000000, 356.000000)">
                    <path d="M42.8630046,36.9813718 C43.9209654,36.9813718 44.8376767,36.6320508 45.6169838,35.9422956 L32.2825427,22.6073418 C31.9626166,22.8364342 31.6525173,23.0592032 31.3595935,23.2710346 C30.3617044,24.0062494 29.551806,24.579963 28.9298984,24.9910647 C28.3080762,25.4031062 27.480746,25.8230947 26.4479931,26.2518845 C25.4145566,26.6811871 24.4517875,26.8951547 23.5586605,26.8951547 L23.5325127,26.8951547 L23.5063649,26.8951547 C22.6131524,26.8951547 21.6503834,26.6812725 20.6170323,26.2518845 C19.5836813,25.8230947 18.756351,25.4031062 18.135127,24.9910647 C17.5133048,24.579963 16.7038337,24.0063349 15.7054319,23.2710346 C15.4272055,23.0670647 15.1186443,22.8432702 14.7850462,22.6037529 L1.44804157,35.9422956 C2.22726328,36.6320508 3.14457275,36.9813718 4.20244804,36.9813718 L42.8630046,36.9813718 L42.8630046,36.9813718 Z" id="Shape"></path>
                    <path d="M2.65297691,14.2103072 C1.65517321,13.5450762 0.770334873,12.7832009 0,11.9250231 L0,32.2130716 L11.7529261,20.4601455 C9.40167436,18.8186443 6.37220323,16.7377575 2.65297691,14.2103072 Z" id="Shape"></path>
                    <path d="M44.4392217,14.2103072 C40.861843,16.6316282 37.8213487,18.7161039 35.3173972,20.4648453 L47.0656236,32.2135843 L47.0656236,11.9250231 C46.3123788,12.76594 45.4370254,13.5273025 44.4392217,14.2103072 Z" id="Shape"></path>
                    <path d="M42.8630046,0.0011108545 L4.20253349,0.0011108545 C2.85378522,0.0011108545 1.81684527,0.456561201 1.09043187,1.36652194 C0.363420323,2.27690993 0.000512702079,3.41545035 0.000512702079,4.78086143 C0.000512702079,5.88376905 0.482110855,7.07879215 1.44487991,8.36627252 C2.40764896,9.65324018 3.43211316,10.6641178 4.51775982,11.399418 C5.11292148,11.8199192 6.90772055,13.0676651 9.90215704,15.1422286 C11.5186212,16.2623972 12.9243649,17.2387529 14.1323764,18.0812933 C15.1620531,18.7987344 16.0500531,19.4200439 16.7832171,19.9356513 C16.8673857,19.9946975 16.9997483,20.0893764 17.1754342,20.2149885 C17.3647067,20.35094 17.604224,20.5234642 17.8997113,20.7368337 C18.4687252,21.1483626 18.9414365,21.4810208 19.3179307,21.7351501 C19.6939122,21.9893649 20.149448,22.2733164 20.6838545,22.5886282 C21.2178337,22.9035127 21.7214781,23.1402956 22.1941894,23.2977806 C22.6669861,23.4551801 23.1046628,23.5341363 23.5073048,23.5341363 L23.5334527,23.5341363 L23.5596005,23.5341363 C23.962157,23.5341363 24.3999192,23.4551801 24.8728014,23.2977806 C25.3454273,23.1402956 25.8486443,22.9040254 26.3830508,22.5886282 C26.9169446,22.2733164 27.3718822,21.9887667 27.74906,21.7351501 C28.1255543,21.4810208 28.5982656,21.148448 29.1673649,20.7368337 C29.462254,20.5234642 29.7017714,20.3508545 29.8910439,20.2154157 C30.0668152,20.089291 30.1990924,19.9952102 30.2837737,19.9356513 C30.8549238,19.5382217 31.7449746,18.9194758 32.9416212,18.0885566 C35.119067,16.5756582 38.3258476,14.3489076 42.5754642,11.399418 C43.853545,10.5067182 44.9213326,9.42944573 45.7795104,8.16913857 C46.6361501,6.90883141 47.0656236,5.5868291 47.0656236,4.20355889 C47.0656236,3.04784296 46.649224,2.0589261 45.8182194,1.23527021 C44.9862748,0.412639723 44.0011178,0.0011108545 42.8630046,0.0011108545 Z" id="Shape"></path>
                </g>
            </g>
        </g>
    </g>
</svg>