
<svg width="28px" height="28px" viewBox="0 0 28 28" version="1.1" xmlns="http://www.w3.org/2000/svg" xmlns:xlink="http://www.w3.org/1999/xlink">
    <!-- Generator: Sketch 47.1 (45422) - http://www.bohemiancoding.com/sketch -->
    <desc>Created with Sketch.</desc>
    <defs></defs>
    <g id="Page-1" stroke="none" stroke-width="1" fill="none" fill-rule="evenodd">
        <g id="launchpage" transform="translate(-858.000000, -7336.000000)" fill-rule="nonzero" fill="#FFFFFF">
            <g id="Footer" transform="translate(0.000000, 6976.000000)">
                <g id="Group-7" transform="translate(693.000000, 284.000000)">
                    <g id="slack-symbol" transform="translate(165.000000, 76.000000)">
                        <path d="M27.7856714,14.576148 C27.2335506,13.3401633 25.7828977,12.7853949 24.5468595,13.3374918 L23.3669239,13.8664363 L20.3427267,7.10681097 L21.5226623,6.57964747 C22.7587005,6.02576959 23.3126023,4.57606995 22.759591,3.34097572 C22.2074702,2.10410053 20.7577078,1.54933217 19.5207791,2.10321005 L18.341734,2.63126403 L17.8136571,1.45048902 C17.2606458,0.214504306 15.8108834,-0.338483089 14.5748452,0.214504306 C13.338807,0.766601223 12.7857957,2.21541039 13.3379165,3.45317606 L13.8659933,4.6330606 L7.10607547,7.65623645 L6.57888915,6.47635191 C6.02587782,5.23858625 4.57611543,4.68737981 3.34007723,5.23858625 C2.10403903,5.79157364 1.5510277,7.24127329 2.10314851,8.477258 L2.63033484,9.65625206 L1.45128975,10.1851965 C0.215251547,10.7381839 -0.338650299,12.1861026 0.214361029,13.4229778 C0.76648184,14.6589625 2.21713474,15.2128404 3.45317295,14.6607435 L4.63310855,14.131799 L7.65552473,20.8923148 L6.47558913,21.4194783 C5.23955092,21.9724657 4.6865396,23.4230558 5.23866041,24.65815 C5.79167174,25.8950252 7.24143412,26.4489031 8.47747232,25.8968062 L9.65651741,25.3687522 L10.1845943,26.5486367 C10.7376056,27.7855119 12.187368,28.3384993 13.4234062,27.7855119 C14.6585539,27.233415 15.2124557,25.7837154 14.6594444,24.5477307 L14.1331486,23.3669556 L20.8930664,20.3446703 L21.4202528,21.5209929 C21.9732641,22.759649 23.4221359,23.3135269 24.6590647,22.7605395 C25.8951029,22.2093331 26.4490047,20.758743 25.8959934,19.5218678 L25.3688071,18.3428737 L26.5469616,17.8139292 C27.7847809,17.2609418 28.3386827,15.8121327 27.7856714,14.576148 Z M12.1312654,18.8914087 L9.10795867,12.1300024 L15.8678765,9.10771706 L18.8911832,15.8673424 L12.1312654,18.8914087 Z" id="Shape"></path>
                    </g>
                </g>
            </g>
        </g>
    </g>
</svg>