
<svg width="44px" height="37px" viewBox="0 0 44 37" version="1.1" xmlns="http://www.w3.org/2000/svg" xmlns:xlink="http://www.w3.org/1999/xlink">
    <!-- Generator: Sketch 47.1 (45422) - http://www.bohemiancoding.com/sketch -->
    <desc>Created with Sketch.</desc>
    <defs></defs>
    <g id="Page-1" stroke="none" stroke-width="1" fill="none" fill-rule="evenodd">
        <g id="launchpage" transform="translate(-981.000000, -7037.000000)" fill="#FFFFFF">
            <g id="Footer" transform="translate(215.000000, 6256.000000)">
                <g id="Group-4" transform="translate(752.000000, 781.000000)">
                    <path d="M55.176217,0.144438104 C56.7078237,-0.451307894 58.2907964,0.886748162 57.9543421,2.49275811 L51.0838337,35.2798764 C50.7615084,36.8184036 48.9535285,37.5094426 47.684034,36.5793144 L37.3104656,28.9789398 L32.0234582,34.3672779 C31.0955679,35.3129587 29.4926561,34.9302051 29.0940079,33.6676717 L25.2777337,21.5806181 L15.0519253,18.5665651 C13.7102015,18.1711584 13.6312377,16.3041801 14.9346681,15.797137 L55.176217,0.144438104 Z M50.1309866,7.42071102 C50.578492,7.02583159 50.0587572,6.32833429 49.5511707,6.64281436 L27.4778915,20.3075405 C27.0892789,20.5480795 26.9124687,21.0204587 27.0480804,21.4564604 L30.0089577,30.9795656 C30.0712836,31.1796414 30.3632383,31.1520947 30.3867426,30.9438472 L31.1063957,24.5582936 C31.1341254,24.3115599 31.2527031,24.0839375 31.4390207,23.9194483 L50.1309866,7.42071102 Z" id="Combined-Shape"></path>
                </g>
            </g>
        </g>
    </g>
</svg>