
<svg width="38px" height="32px" viewBox="0 0 38 32" version="1.1" xmlns="http://www.w3.org/2000/svg" xmlns:xlink="http://www.w3.org/1999/xlink">
    <!-- Generator: Sketch 47.1 (45422) - http://www.bohemiancoding.com/sketch -->
    <desc>Created with Sketch.</desc>
    <defs></defs>
    <g id="Page-1" stroke="none" stroke-width="1" fill="none" fill-rule="evenodd">
        <g id="launchpage" transform="translate(-1185.000000, -7334.000000)" fill-rule="nonzero" fill="#FFFFFF">
            <g id="Footer" transform="translate(0.000000, 6976.000000)">
                <g id="twitter-logo-on-black-background" transform="translate(1185.000000, 358.000000)">
                    <path d="M34.7342686,7.95280506 C34.4373945,21.7610531 25.8280459,31.3667908 12.7655859,31.9671494 C7.42185226,32.2673287 3.56248909,30.4662529 0,28.3649978 C3.85936318,28.9654741 8.90622271,27.4645776 11.5780895,25.0630254 C7.71872635,24.7628461 5.34373363,22.661591 4.15623727,19.3596186 C5.34373363,19.6597979 6.53122999,19.3596186 7.42185226,19.3596186 C3.85936318,18.1589014 1.48437045,16.0576463 1.18749636,11.2547774 C2.07811863,11.855136 3.265615,12.1553153 4.45311136,12.1553153 C1.78124454,10.6544188 0,4.95101202 2.07811863,1.34886036 C5.93748181,5.55137063 10.6874673,9.15352228 18.4061936,9.75388089 C16.328075,1.34886036 27.6094068,-3.15382921 32.0625182,2.54957758 C34.1406368,2.24939827 35.6250073,1.34886036 37.1093777,0.748501751 C36.5156295,2.84975688 35.3281332,4.0504741 33.8437627,5.25119132 C35.3281332,4.95101202 36.8125036,4.65083271 38,4.0504741 C37.7030095,5.55137063 36.218639,6.75208784 34.7342686,7.95280506 Z" id="Shape"></path>
                </g>
            </g>
        </g>
    </g>
</svg>