<svg width="25px" height="23px" viewBox="0 0 25 23" version="1.1" xmlns="http://www.w3.org/2000/svg" xmlns:xlink="http://www.w3.org/1999/xlink">
    <!-- Generator: Sketch 47.1 (45422) - http://www.bohemiancoding.com/sketch -->
    <desc>Created with Sketch.</desc>
    <defs></defs>
    <g id="Page-1" stroke="none" stroke-width="1" fill="none" fill-rule="evenodd">
        <g id="whitepaperIcon" transform="translate(-395.000000, -2403.000000)" fill-rule="nonzero" fill="#397BD5">
            <g id="Section-2" transform="translate(0.000000, 1695.000000)">
                <g id="Group-5" transform="translate(379.000000, 691.000000)">
                    <g id="download-4" transform="translate(16.200000, 17.400000)">
                        <path d="M23.2728814,10.8381356 C22.8915254,10.8381356 22.5864407,11.1432203 22.5864407,11.5245763 L22.5864407,17.7686441 C22.5864407,19.4669492 21.2033898,20.8449153 19.5101695,20.8449153 L4.44915254,20.8449153 C2.75084746,20.8449153 1.37288136,19.4618644 1.37288136,17.7686441 L1.37288136,11.4228814 C1.37288136,11.0415254 1.06779661,10.7364407 0.686440678,10.7364407 C0.305084746,10.7364407 0,11.0415254 0,11.4228814 L0,17.7686441 C0,20.2245763 1.99830508,22.2177966 4.44915254,22.2177966 L19.5101695,22.2177966 C21.9661017,22.2177966 23.959322,20.2194915 23.959322,17.7686441 L23.959322,11.5245763 C23.959322,11.1483051 23.6542373,10.8381356 23.2728814,10.8381356 Z" id="Shape"></path>
                        <path d="M11.4966102,16.7669492 C11.6288136,16.8991525 11.8067797,16.970339 11.979661,16.970339 C12.1525424,16.970339 12.3305085,16.9042373 12.4627119,16.7669492 L16.8254237,12.4042373 C17.0949153,12.1347458 17.0949153,11.7025424 16.8254237,11.4330508 C16.5559322,11.1635593 16.1237288,11.1635593 15.8542373,11.4330508 L12.6661017,14.6262712 L12.6661017,0.699152542 C12.6661017,0.31779661 12.3610169,0.0127118644 11.979661,0.0127118644 C11.5983051,0.0127118644 11.2932203,0.31779661 11.2932203,0.699152542 L11.2932203,14.6262712 L8.1,11.4330508 C7.83050847,11.1635593 7.39830508,11.1635593 7.12881356,11.4330508 C6.85932203,11.7025424 6.85932203,12.1347458 7.12881356,12.4042373 L11.4966102,16.7669492 Z" id="Shape"></path>
                    </g>
                </g>
            </g>
        </g>
    </g>
</svg>